<svg width="78" height="69" viewBox="0 0 78 69" fill="none" xmlns="http://www.w3.org/2000/svg">
<path d="M34.4467 53.912L48.1049 37.8019M7.3125 20.0819V24.9148V20.0819ZM17.875 14.4426V30.5526V14.4426ZM23.1562 8.80469V36.1919V8.80469ZM28.4375 14.4426V30.5526V14.4426ZM33.7188 16.859V28.1362V16.859ZM39 12.0261V32.9705V12.0261ZM12.5938 16.859V28.1362V16.859ZM44.2812 16.859V28.1362V16.859ZM49.5625 14.4426V30.5526V14.4426ZM54.8438 8.80469V36.1919V8.80469ZM60.125 14.4426V30.5526V14.4426ZM65.4062 16.859V28.1362V16.859ZM70.6875 20.0819V24.9148V20.0819ZM29.8951 37.8019L43.5533 53.912L29.8951 37.8019Z" stroke="#F8F8F8" stroke-linecap="round" stroke-linejoin="round"/>
<path d="M31.1691 60.1967C33.3823 60.1967 35.1764 58.6096 35.1764 56.6519C35.1764 54.6941 33.3823 53.107 31.1691 53.107C28.956 53.107 27.1619 54.6941 27.1619 56.6519C27.1619 58.6096 28.956 60.1967 31.1691 60.1967Z" stroke="#F8F8F8" stroke-linecap="round" stroke-linejoin="round"/>
<path d="M46.8309 60.1967C49.044 60.1967 50.8381 58.6096 50.8381 56.6519C50.8381 54.6941 49.044 53.107 46.8309 53.107C44.6177 53.107 42.8236 54.6941 42.8236 56.6519C42.8236 58.6096 44.6177 60.1967 46.8309 60.1967Z" stroke="#F8F8F8" stroke-linecap="round" stroke-linejoin="round"/>
</svg>
